# AST/ASF file generated using VICON BodyLanguage
# -----------------------------------------------
:version 1.10
:name VICON
:units
  mass 1.0
  length 0.45
  angle deg
:documentation
   .ast/.asf automatically generated from VICON data using
   VICON BodyBuilder and BodyLanguage model FoxedUp or BRILLIANT.MOD
:root
   order TX TY TZ RX RY RZ
   axis XYZ
   position 0 0 0  
   orientation 0 0 0 
:bonedata
  begin
     id 1 
     name lhipjoint
     direction 0.711131 -0.61297 0.344326 
     length 2.29162 
     axis 0 0 0  XYZ
  end
  begin
     id 2 
     name lfemur
     direction 0.34202 -0.939693 0  
     length 6.71424  
     axis 0 0 20  XYZ
    dof rx ry rz
    limits (-160.0 20.0)
           (-70.0 70.0)
           (-60.0 70.0)
  end
  begin
     id 3 
     name ltibia
     direction 0.34202 -0.939693 0   
     length 6.7087   
     axis 0 0 20   XYZ
    dof rx
    limits (-10.0 170.0)
  end
  begin
     id 4 
     name lfoot
     direction 0.0230374 -0.0632947 0.997729   
     length 1.56743   
     axis -90 7.62852e-016 20   XYZ
    dof rx rz
    limits (-45.0 90.0)
           (-70.0 20.0)
  end
  begin
     id 5 
     name ltoes
     direction 1.53585e-011 -4.21885e-011 1   
     length 0.802914   
     axis -90 7.62852e-016 20   XYZ
    dof rx
    limits (-90.0 20.0)
  end
  begin
     id 6 
     name rhipjoint
     direction -0.733192 -0.592884 0.333043   
     length 2.36925  
     axis 0 0 0  XYZ 
  end
  begin
     id 7 
     name rfemur
     direction -0.34202 -0.939693 0   
     length 6.67027   
     axis 0 0 -20   XYZ
    dof rx ry rz
    limits (-160.0 20.0)
           (-70.0 70.0)
           (-70.0 60.0)
  end
  begin
     id 8 
     name rtibia
     direction -0.34202 -0.939693 0   
     length 6.6862   
     axis 0 0 -20   XYZ
    dof rx
    limits (-10.0 170.0)
 end
 begin
     id 9 
     name rfoot
     direction -0.0949739 -0.260939 0.960672   
     length 1.67698  
     axis -90 -7.62852e-016 -20   XYZ
    dof rx rz
    limits (-45.0 90.0)
           (-20.0 70.0)
  end
  begin
     id 10 
     name rtoes
     direction -1.5353e-011 -4.21868e-011 1   
     length 0.846298   
     axis -90 -7.62852e-016 -20   XYZ
    dof rx
    limits (-90.0 20.0)
  end
  begin
     id 11 
     name lowerback
     direction -0.0206828 0.999785 -0.00109866   
     length 2.04382   
     axis 0 0 0   XYZ
    dof rx ry rz
    limits (-20.0 45.0)
           (-30.0 30.0)
           (-30.0 30.0)
  end
  begin
     id 12 
     name upperback
     direction -0.0105003 0.999727 -0.0208904   
     length 2.04538   
     axis 0 0 0   XYZ
    dof rx ry rz
    limits (-20.0 45.0)
           (-30.0 30.0)
           (-30.0 30.0)
  end
  begin
     id 13 
     name thorax
     direction -0.000416255 0.999808 -0.0196023   
     length 2.0399   
     axis 0 0 0   XYZ
    dof rx ry rz
    limits (-20.0 45.0)
           (-30.0 30.0)
           (-30.0 30.0)
  end
  begin
     id 14 
     name lowerneck
     direction 0.0627861 0.989205 0.13241   
     length 1.46207   
     axis 0 0 0   XYZ
    dof rx ry rz
    limits (-20.0 45.0)
           (-30.0 30.0)
           (-30.0 30.0)
  end
  begin
     id 15 
     name upperneck
     direction 0.00627179 0.994526 0.104303   
     length 1.41419   
     axis 0 0 0   XYZ
    dof rx ry rz
    limits (-20.0 45.0)
           (-30.0 30.0)
           (-30.0 30.0)
  end
  begin
     id 16
     name head
     direction -0.00443838 0.999688 0.0245968  
     length 1.50718  
     axis 0 0 0   XYZ
    dof rx ry rz
    limits (-20.0 45.0)
           (-30.0 30.0)
           (-30.0 30.0)
  end
  begin
     id 17 
     name lclavicle
     direction 0.758742 0.650995 -0.0227258  
     length 2.86888  
     axis 0 0 0   XYZ
    dof ry rz
    limits (-20.0 10.0)
           (0.0 20.0)
  end
  begin
     id 18 
     name lhumerus
     direction 1 -4.48962e-011 1.06664e-027   
     length 4.65776   
     axis -180 -30 -90   XYZ
    dof rx ry rz
    limits (-60.0 90.0)
           (-90.0 90.0)
           (-90.0 90.0)
  end
  begin
     id 19
     name lradius
     direction 1 -4.48968e-011 1.40404e-026   
     length 3.55539   
     axis -180 -30 -90   XYZ
    dof rx
    limits (-10.0 170.0)
  end
  begin
     id 20
     name lwrist
     direction 1 -4.48976e-011 3.32647e-026   
     length 1.77769   
     axis -2.20186e-014 90 90   XYZ
    dof ry
    limits (-180.0 0.0)
 end
  begin
     id 21 
     name lhand
     direction 1 -4.48982e-011 6.65293e-026   
     length 0.707264   
     axis -4.24514e-014 90 90   XYZ
    dof rx rz
    limits (-90.0 90.0)
           (-45.0 45.0)
  end
  begin
     id 22 
     name lfingers
     direction 1 -4.48966e-011 1.33059e-025   
     length 0.570215   
     axis -8.49028e-014 90 90   XYZ
    dof rx
    limits (0.0 90.0)
  end
  begin
     id 23
     name lthumb
     direction 0.707107 -6.3493e-011 0.707107   
     length 0.818718   
     axis -90 45 2.85299e-015   XYZ
    dof rx rz
    limits (-45.0 45.0)
           (-45.0 45.0)
  end
  begin
     id 24 
     name rclavicle
     direction -0.870343 0.482028 -0.100759   
     length 3.2251  
     axis 0 0 0   XYZ 
    dof ry rz
    limits (-10.0 20.0)
           (-20.0 0.0)
  end
  begin
     id 25 
     name rhumerus
     direction -1 -4.48974e-011 -9.45849e-028  
     length 4.71925   
     axis -180 30 90   XYZ
    dof rx ry rz
    limits (-90.0 60.0)
           (-90.0 90.0)
           (-90.0 90.0)
  end
  begin
     id 26 
     name rradius
     direction -1 -4.48965e-011 1.17607e-026   
     length 3.5699   
     axis -180 30 90   XYZ
    dof rx
    limits (-10.0 170.0)
  end
  begin
     id 27 
     name rwrist
     direction -1 -4.48968e-011 3.32647e-026   
     length 1.78495   
     axis -2.20186e-014 -90 -90   XYZ
    dof ry
    limits (-180.0 0.0)
  end
  begin
     id 28
     name rhand
     direction -1 -4.48995e-011 6.65293e-026   
     length 0.507757   
     axis -4.24514e-014 -90 -90   XYZ
    dof rx rz
    limits (-90.0 90.0)
           (-45.0 45.0)
  end
  begin
     id 29
     name rfingers
     direction -1 -4.48864e-011 1.33059e-025   
     length 0.409367   
     axis -8.49028e-014 -90 -90   XYZ
    dof rx
    limits (0.0 90.0)
  end
  begin
     id 30
     name rthumb
     direction -0.707107 -6.3494e-011 0.707107   
     length 0.587771   
     axis -90 -45 -2.85299e-015   XYZ
    dof rx rz
    limits (-45.0 45.0)
           (-45.0 45.0)
  end
:hierarchy
  begin
    root lhipjoint rhipjoint lowerback
    lhipjoint lfemur
    lfemur ltibia
    ltibia lfoot
    lfoot ltoes
    rhipjoint rfemur
    rfemur rtibia
    rtibia rfoot
    rfoot rtoes
    lowerback upperback
    upperback thorax
    thorax lowerneck lclavicle rclavicle
    lowerneck upperneck
    upperneck head
    lclavicle lhumerus
    lhumerus lradius
    lradius lwrist
    lwrist lhand lthumb
    lhand lfingers
    rclavicle rhumerus
    rhumerus rradius
    rradius rwrist
    rwrist rhand rthumb
    rhand rfingers
  end

#!OML:ASF E:\Steps\Project 1\Capture day 1\Session 2\Subject.ASF
:FULLY-SPECIFIED
:DEGREES
1
root 7.07235 16.2914 31.5436 -154.816 -1.32412 177.797
lowerback -28.637 -1.21021 -7.38085
upperback -1.14646 0.304171 -0.849342
thorax 13.8126 -0.564485 3.14799
lowerneck -5.13457 -3.42841 -1.57856
upperneck 7.58311 -5.25451 6.57454
head 3.64084 -2.48301 2.20612
rclavicle 1.54058e-015 2.70347e-014
rhumerus -39.328 -19.7572 -78.1918
rradius 35.4157
rwrist -3.17731
rhand -5.21581 -52.2624
rfingers 7.12502
rthumb 20.586 -81.1908
lclavicle 1.54058e-015 2.70347e-014
lhumerus -32.3416 14.2947 76.2743
lradius 18.0747
lwrist -8.03706
lhand -21.2253 -13.8731
lfingers 7.12502
lthumb 5.15683 16.0442
rfemur -21.5966 5.0625 20.5477
rtibia 5.33011
rfoot -18.7526 -7.23774
rtoes -27.8824
lfemur -23.5022 -9.8212 -20.5139
ltibia 9.49224
lfoot -8.40948 -1.3941
ltoes -28.5117
2
root 7.07363 16.2922 31.5396 -154.894 -1.36151 177.794
lowerback -28.5599 -1.06436 -7.42721
upperback -1.0816 0.536609 -0.99668
thorax 13.8275 -0.457453 3.1027
lowerneck -5.2965 -3.61429 -1.1535
upperneck 7.4832 -5.5164 6.4103
head 3.62644 -2.60399 2.05674
rclavicle -7.55382e-015 4.41302e-014
rhumerus -39.4708 -20.4981 -78.0333
rradius 35.1067
rwrist -3.02014
rhand -5.5192 -51.9845
rfingers 7.12502
rthumb 20.2945 -80.9442
lclavicle -7.55382e-015 4.41302e-014
lhumerus -32.0297 14.0982 76.1028
lradius 17.9144
lwrist -8.1419
lhand -21.0248 -14.237
lfingers 7.12502
lthumb 5.35041 15.6754
rfemur -21.4819 5.02653 20.5665
rtibia 5.33099
rfoot -18.8346 -7.15218
rtoes -27.3933
lfemur -23.3986 -9.63496 -20.5734
ltibia 9.4906
lfoot -8.35735 -1.51681
ltoes -29.8349
3
root 7.07427 16.2961 31.5309 -155.139 -1.36309 177.824
lowerback -28.3824 -1.1669 -7.43351
upperback -1.06148 0.382597 -0.846367
thorax 13.7848 -0.524021 3.21413
lowerneck -4.93372 -3.49053 -1.57209
upperneck 7.27384 -5.32189 6.65529
head 3.5004 -2.52114 2.23022
rclavicle -4.96962e-016 -6.71892e-014
rhumerus -39.5833 -20.2264 -77.7702
rradius 34.7665
rwrist -2.82135
rhand -5.82892 -51.3426
rfingers 7.12502
rthumb 19.9968 -80.3336
lclavicle -4.96962e-016 -6.71892e-014
lhumerus -32.2731 14.604 76.019
lradius 17.9394
lwrist -8.28171
lhand -21.008 -14.2723
lfingers 7.12502
lthumb 5.36658 15.6398
rfemur -21.1327 4.838 20.6459
rtibia 5.239
rfoot -18.8904 -6.88974
rtoes -26.9069
lfemur -23.0483 -9.5148 -20.6074
ltibia 9.40238
lfoot -8.34641 -1.53802
ltoes -30.7035
4
root 7.07656 16.2986 31.5272 -155.305 -1.42607 177.856
lowerback -28.1991 -1.06415 -7.43559
upperback -1.01061 0.529832 -0.942425
thorax 13.7437 -0.450001 3.16909
lowerneck -5.04983 -3.44882 -1.48539
upperneck 7.36704 -5.31327 6.88223
head 3.56157 -2.50782 2.291
rclavicle 9.34288e-015 -6.36111e-015
rhumerus -39.7194 -20.9362 -77.5421
rradius 34.2877
rwrist -2.29566
rhand -5.96716 -51.3889
rfingers 7.12502
rthumb 19.8639 -80.3938
lclavicle 9.34288e-015 -6.36111e-015
lhumerus -32.1156 14.1232 76.0484
lradius 17.9593
lwrist -8.16386
lhand -21.0092 -14.1245
lfingers 7.12502
lthumb 5.36551 15.7876
rfemur -20.8884 4.76058 20.7288
rtibia 5.16238
rfoot -18.8372 -6.91133
rtoes -27.2939
lfemur -22.8278 -9.57025 -20.5534
ltibia 9.33925
lfoot -8.37267 -1.57911
ltoes -29.9262
5
root 7.07986 16.2975 31.5306 -155.231 -1.48706 177.831
lowerback -28.1954 -1.26442 -7.51901
upperback -1.09921 0.252648 -0.739577
thorax 13.6668 -0.583781 3.32929
lowerneck -4.73024 -3.45092 -1.87809
upperneck 7.08659 -5.26606 6.98945
head 3.41913 -2.49939 2.4046
rclavicle -7.90169e-015 1.70955e-014
rhumerus -39.7712 -20.5047 -77.3401
rradius 33.8771
rwrist -2.10275
rhand -6.14576 -51.8052
rfingers 7.12502
rthumb 19.6922 -80.8277
lclavicle -7.90169e-015 1.70955e-014
lhumerus -32.4416 14.6044 76.0464
lradius 18.0762
lwrist -8.12728
lhand -20.8804 -14.0905
lfingers 7.12502
lthumb 5.48982 15.8184
rfemur -20.9738 4.76941 20.7215
rtibia 5.16811
rfoot -18.8052 -7.04011
rtoes -27.6746
lfemur -22.9587 -9.53824 -20.5483
ltibia 9.39228
lfoot -8.43827 -1.73211
ltoes -29.0734
6
root 7.08083 16.296 31.5331 -155.128 -1.49893 177.821
lowerback -28.2403 -1.28826 -7.55882
upperback -1.15963 0.219937 -0.702319
thorax 13.6204 -0.602948 3.37739
lowerneck -4.91055 -3.43747 -2.02082
upperneck 7.40442 -5.26302 6.99832
head 3.57018 -2.49406 2.43351
rclavicle -6.95746e-015 -1.59028e-015
rhumerus -39.9147 -20.5505 -77.1751
rradius 33.5982
rwrist -2.23369
rhand -6.40927 -51.9137
rfingers 7.12502
rthumb 19.4389 -80.9621
lclavicle -6.95746e-015 -1.59028e-015
lhumerus -32.5302 14.6795 76.0265
lradius 18.1413
lwrist -8.13475
lhand -20.811 -14.14
lfingers 7.12502
lthumb 5.55679 15.7671
rfemur -21.1103 4.79574 20.7053
rtibia 5.2006
rfoot -18.83 -7.07551
rtoes -27.6136
lfemur -23.0756 -9.52075 -20.544
ltibia 9.37582
lfoot -8.44991 -1.79644
ltoes -28.8869
7
root 7.0782 16.2961 31.5336 -155.019 -1.48397 177.86
lowerback -28.3444 -1.20098 -7.47872
upperback -1.17359 0.318697 -0.760637
thorax 13.6431 -0.555282 3.30637
lowerneck -4.72048 -3.48244 -1.90276
upperneck 7.06725 -5.31945 7.10321
head 3.41924 -2.52481 2.44536
rclavicle -8.44835e-016 -2.66371e-014
rhumerus -40.0133 -20.9885 -77.0064
rradius 33.2573
rwrist -2.26479
rhand -6.55502 -52.1508
rfingers 7.12502
rthumb 19.2987 -81.2132
lclavicle -8.44835e-016 -2.66371e-014
lhumerus -32.4352 14.6514 75.9555
lradius 18.1335
lwrist -8.36107
lhand -20.925 -14.1171
lfingers 7.12502
lthumb 5.44678 15.7929
rfemur -21.2714 4.72235 20.7472
rtibia 5.25611
rfoot -18.8329 -6.96327
rtoes -27.7742
lfemur -23.1656 -9.44521 -20.5108
ltibia 9.28798
lfoot -8.35273 -1.86478
ltoes -28.5101
